<svg fill="none" height="165" viewBox="0 0 132 165" width="132" xmlns="http://www.w3.org/2000/svg" xmlns:xlink="http://www.w3.org/1999/xlink"><clipPath id="a"><path d="m0 0h132v165h-132z"/></clipPath><g clip-path="url(#a)" fill="#fff"><path d="m66.0171 81.1448c-6.7174 0-13.4349.0806-20.1493-.0186-10.6612-.1613-20.1867-7.7766-22.8263-18.0615-1.7347-6.7564-.6021-13.0198 2.9391-18.9917 6.3306-10.6757 12.5551-21.4134 18.8514-32.1108 3.2573-5.5378 8.0653-9.20281 14.2243-10.973301 10.4366-3.001469 21.9808.902301 27.7809 10.539201 6.8423 11.3734 13.5758 22.818 20.0868 34.3805 6.334 11.2493 1.648 26.1543-9.8312 32.2595-3.6535 1.9441-7.5318 2.986-11.6814 2.9891-6.4648 0-12.9295 0-19.3912 0v-.0155zm-.1061-3.2309c17.6283.0713 32.3862-13.8074 32.3581-31.8441-.0281-17.7576-14.3335-31.6921-32.1272-31.7821-17.9403-.0899-32.3081 13.8911-32.4641 31.5526-.1622 17.9685 14.4926 32.086 32.2332 32.0767"/><path d="m25.1477 118.254-1.0265-2.728h-6.3431l-1.0265 2.728h-2.0155l5.4133-13.984h1.6006l5.4538 13.984zm-6.7393-4.418h5.0576l-2.5304-6.679-2.5303 6.679z"/><path d="m28.7607 118.254v-13.984h4.6052c4.4274 0 7.4102 2.632 7.4102 6.992s-2.9828 6.992-7.4102 6.992zm1.9376-1.727h2.5491c3.2417 0 5.5318-1.65 5.5318-5.265s-2.2932-5.262-5.5318-5.262h-2.5491z"/><path d="m51.2312 104.27h2.0343l-5.4133 13.984h-1.5413l-5.4352-13.984h2.0561l4.1497 10.998z"/><path d="m62.2761 118.254-1.0265-2.728h-6.343l-1.0265 2.728h-2.0156l5.4133-13.984h1.6006l5.4538 13.984zm-6.7393-4.418h5.0576l-2.5304-6.679-2.5303 6.679z"/><path d="m75.9108 104.27h1.8564v13.984h-1.819l-8.2026-10.899v10.899h-1.8564v-13.984h1.819l8.2026 10.899z"/><path d="m79.8015 111.262c0-4.437 2.8642-7.246 6.7206-7.246 2.4898 0 4.6051 1.1 5.7908 2.964l-1.5226 1.02c-1.0265-1.454-2.5897-2.161-4.2495-2.161-2.6864 0-4.7643 1.984-4.7643 5.42 0 3.435 2.0748 5.42 4.7643 5.42 1.6598 0 3.2199-.707 4.2495-2.161l1.5007 1.001c-1.2043 1.885-3.3384 2.986-5.7721 2.986-3.8532 0-6.7206-2.809-6.7206-7.246z"/><path d="m94.1289 118.254v-13.984h8.7551v1.727h-6.8175v4.242h6.2465v1.708h-6.2465v4.577h7.0165v1.727h-8.951z"/><path d="m105.233 118.254v-13.984h4.605c4.428 0 7.41 2.632 7.41 6.992s-2.982 6.992-7.41 6.992zm1.938-1.727h2.549c3.242 0 5.532-1.65 5.532-5.265s-2.294-5.262-5.532-5.262h-2.549z"/><path d="m7.38208 139.897 1.00778-1.396c.92977.884 2.41184 1.514 4.04984 1.514 1.7379 0 3.0826-.807 3.0826-2.338 0-3.594-7.82509-1.867-7.82509-6.698 0-2.434 2.01555-3.711 4.86099-3.711 1.7598 0 3.5569.489 4.7425 1.649l-.9485 1.374c-.9297-.806-2.2339-1.296-3.7534-1.296-1.7784 0-2.96404.666-2.96404 1.944 0 3.141 7.82504 1.513 7.82504 6.738 0 2.651-2.0342 4.065-4.9983 4.065-2.0155 0-3.9718-.667-5.07942-1.845z"/><path d="m31.135 127.525h1.8377v13.984h-1.8564v-10.663l-4.2682 6.738h-1.2636l-4.2496-6.757v10.685h-1.8564v-13.984h1.8377l4.9016 7.718 4.9203-7.718z"/><path d="m35.0071 134.517c0-4.241 3.1419-7.246 7.1948-7.246 4.053 0 7.1949 3.005 7.1949 7.246 0 4.242-3.1419 7.247-7.1949 7.247-4.0529 0-7.1948-3.005-7.1948-7.247zm12.4115 0c0-3.24-2.2339-5.42-5.2167-5.42s-5.2167 2.18-5.2167 5.42c0 3.241 2.2339 5.42 5.2167 5.42s5.2167-2.179 5.2167-5.42z"/><path d="m57.3373 134.281 4.9796 7.228h-2.234l-4.1902-5.991c-.1778-.275-.2964-.353-.7519-.353h-1.7784v6.344h-1.9376v-13.984h1.9376v5.873h1.8564c.4149 0 .5335-.078.7114-.354l3.8719-5.519h2.1747l-4.6426 6.756z"/><path d="m63.9548 141.509v-13.984h8.7549v1.727h-6.8173v4.242h6.2463v1.708h-6.2463v4.577h7.017v1.727h-8.9514z"/><path d="m73.8359 136.973v-1.631h6.4835v1.631z"/><path d="m81.9575 141.509v-13.984h8.4398v1.727h-6.5022v4.849h6.0092v1.69h-6.0092v5.715h-1.9376z"/><path d="m102.725 141.509h-2.175l-3.5757-6.068h-2.6864v6.068h-1.9376v-13.984h5.0982c2.8265 0 4.6835 1.315 4.6835 3.966 0 2.121-1.205 3.398-3.1422 3.81zm-8.4402-12.335v4.614h3.2012c1.7004 0 2.686-.824 2.686-2.297s-.9887-2.317-2.686-2.317z"/><path d="m104.64 141.509v-13.984h8.755v1.727h-6.817v4.242h6.246v1.708h-6.246v4.577h7.017v1.727h-8.951z"/><path d="m115.748 141.509v-13.984h8.754v1.727h-6.817v4.242h6.246v1.708h-6.246v4.577h7.017v1.727h-8.951z"/><path d="m10.4147 164.764-1.02647-2.728h-6.34618l-1.0265 2.728h-2.01555l5.41329-13.984h1.60058l5.45383 13.984h-2.0561zm-6.73928-4.418h5.0576l-2.53036-6.679-2.53036 6.679z"/><path d="m14.0308 164.764v-13.984h1.9375v12.254h6.5428v1.727h-8.4772z"/><path d="m25.6499 164.764v-12.254h-4.4055v-1.727h10.7891v1.727h-4.4273v12.254z"/><path d="m33.7715 164.764v-13.984h8.7548v1.727h-6.8173v4.242h6.2464v1.709h-6.2464v4.576h7.017v1.727h-8.9514z"/><path d="m55.2499 164.764h-2.1747l-3.5756-6.068h-2.6863v6.068h-1.9376v-13.984h5.0982c2.8268 0 4.6832 1.315 4.6832 3.966 0 2.121-1.2043 3.398-3.1419 3.811zm-8.4397-12.334v4.614h3.2011c1.7005 0 2.6864-.825 2.6864-2.298s-.9891-2.316-2.6864-2.316z"/><path d="m67.1871 150.78h1.8565v13.984h-1.819l-8.2026-10.899v10.899h-1.8565v-13.984h1.819l8.2026 10.899z"/><path d="m81.0183 164.764-1.0265-2.728h-6.3431l-1.0265 2.728h-2.0155l5.4133-13.984h1.6006l5.4538 13.984zm-6.7393-4.418h5.0576l-2.5304-6.679-2.5303 6.679z"/><path d="m86.1758 164.764v-12.254h-4.4055v-1.727h10.7891v1.727h-4.4273v12.254z"/><path d="m94.3752 164.764v-13.984h1.9376v13.984z"/><path d="m108.306 150.78h2.035l-5.414 13.984h-1.541l-5.4351-13.984h2.0561l4.15 10.998z"/><path d="m111.904 164.764v-13.984h8.755v1.727h-6.818v4.242h6.247v1.709h-6.247v4.576h7.017v1.727h-8.951z"/><path d="m121.922 163.152 1.008-1.395c.93.883 2.412 1.513 4.05 1.513 1.738 0 3.082-.806 3.082-2.338 0-3.594-7.825-1.867-7.825-6.698 0-2.434 2.016-3.711 4.861-3.711 1.76 0 3.557.49 4.743 1.65l-.949 1.373c-.93-.806-2.234-1.296-3.753-1.296-1.779 0-2.964.667-2.964 1.944 0 3.141 7.825 1.513 7.825 6.735 0 2.651-2.034 4.065-4.998 4.065-2.016 0-3.972-.667-5.08-1.845z"/></g></svg>