<svg width="144" height="181" viewBox="0 0 144 181" fill="none" xmlns="http://www.w3.org/2000/svg">
<g id="Layer_1" clip-path="url(#clip0_746_217)">
<path id="Vector" d="M72.0182 89.0136C64.6901 89.0136 57.3619 89.102 50.0372 88.9931C38.4068 88.8163 28.0153 80.4625 25.1358 69.1802C23.2433 61.7687 24.4789 54.8979 28.3421 48.3469C35.2482 36.636 42.0385 24.8571 48.9072 13.1224C52.4606 7.04757 57.7057 3.02716 64.4246 1.08498C75.8099 -2.20754 88.4036 2.07478 94.7311 12.6462C102.195 25.1224 109.541 37.6768 116.644 50.3605C123.554 62.7006 118.441 79.051 105.919 85.7482C101.933 87.8809 97.7025 89.0238 93.1756 89.0272C86.1231 89.0272 79.0707 89.0272 72.0216 89.0272V89.0101L72.0182 89.0136ZM71.9025 85.4693C91.1334 85.5476 107.233 70.3231 107.202 50.5374C107.172 31.0578 91.5656 15.7721 72.1544 15.6734C52.5832 15.5748 36.9092 30.9115 36.739 50.2857C36.562 69.9965 52.5491 85.4829 71.9025 85.4727" fill="white"/>
<path id="Vector_2" d="M27.4333 129.721L26.3135 126.728H19.3938L18.274 129.721H16.0752L21.9806 114.381H23.7267L29.6763 129.721H27.4333ZM20.0813 124.874H25.5987L22.8383 117.548L20.0779 124.874H20.0813Z" fill="white"/>
<path id="Vector_3" d="M31.375 129.721V114.381H36.3988C41.2287 114.381 44.4826 117.269 44.4826 122.051C44.4826 126.833 41.2287 129.721 36.3988 129.721H31.375ZM33.4887 127.826H36.2695C39.8059 127.826 42.3043 126.017 42.3043 122.051C42.3043 118.085 39.8025 116.279 36.2695 116.279H33.4887V127.826Z" fill="white"/>
<path id="Vector_4" d="M55.8887 114.381H58.1079L52.2025 129.721H50.521L44.5918 114.381H46.8348L51.3617 126.445L55.8887 114.381Z" fill="white"/>
<path id="Vector_5" d="M67.9372 129.721L66.8174 126.728H59.8977L58.7779 129.721H56.5791L62.4845 114.381H64.2306L70.1803 129.721H67.9372ZM60.5852 124.874H66.1026L63.3422 117.548L60.5818 124.874H60.5852Z" fill="white"/>
<path id="Vector_6" d="M82.8116 114.381H84.8368V129.721H82.8524L73.9041 117.765V129.721H71.8789V114.381H73.8633L82.8116 126.337V114.381Z" fill="white"/>
<path id="Vector_7" d="M87.0561 122.051C87.0561 117.183 90.1807 114.102 94.3877 114.102C97.1038 114.102 99.4115 115.309 100.705 117.353L99.0439 118.472C97.9241 116.877 96.2189 116.102 94.4081 116.102C91.4775 116.102 89.2107 118.278 89.2107 122.047C89.2107 125.816 91.4741 127.993 94.4081 127.993C96.2189 127.993 97.9207 127.217 99.0439 125.622L100.681 126.721C99.3673 128.789 97.0392 129.996 94.3843 129.996C90.1807 129.996 87.0527 126.914 87.0527 122.047L87.0561 122.051Z" fill="white"/>
<path id="Vector_8" d="M102.686 129.721V114.381H112.236V116.275H104.799V120.928H111.613V122.803H104.799V127.823H112.454V129.718H102.689L102.686 129.721Z" fill="white"/>
<path id="Vector_9" d="M114.8 129.721V114.381H119.824C124.653 114.381 127.907 117.269 127.907 122.051C127.907 126.833 124.653 129.721 119.824 129.721H114.8ZM116.913 127.826H119.694C123.231 127.826 125.729 126.017 125.729 122.051C125.729 118.085 123.227 116.279 119.694 116.279H116.913V127.826Z" fill="white"/>
<path id="Vector_10" d="M8.05273 153.462L9.15213 151.932C10.1664 152.901 11.7832 153.591 13.5701 153.591C15.466 153.591 16.933 152.707 16.933 151.027C16.933 147.085 8.39651 148.979 8.39651 143.68C8.39651 141.01 10.5953 139.608 13.6995 139.608C15.6191 139.608 17.5797 140.146 18.8731 141.418L17.8383 142.925C16.824 142.04 15.4013 141.503 13.7437 141.503C11.8036 141.503 10.5102 142.234 10.5102 143.636C10.5102 147.081 19.0467 145.295 19.0467 151.027C19.0467 153.935 16.8275 155.486 13.5939 155.486C11.3952 155.486 9.26104 154.755 8.05273 153.462Z" fill="white"/>
<path id="Vector_11" d="M33.9652 139.892H35.97V155.232H33.9448V143.534L29.2885 150.926H27.91L23.2742 143.514V155.235H21.249V139.895H23.2538L28.601 148.361L33.9686 139.895L33.9652 139.892Z" fill="white"/>
<path id="Vector_12" d="M38.1895 147.561C38.1895 142.908 41.617 139.612 46.0384 139.612C50.4598 139.612 53.8873 142.908 53.8873 147.561C53.8873 152.214 50.4598 155.51 46.0384 155.51C41.617 155.51 38.1895 152.214 38.1895 147.561ZM51.7293 147.561C51.7293 144.007 49.2923 141.616 46.0384 141.616C42.7844 141.616 40.3474 144.007 40.3474 147.561C40.3474 151.116 42.7844 153.507 46.0384 153.507C49.2923 153.507 51.7293 151.116 51.7293 147.561Z" fill="white"/>
<path id="Vector_13" d="M62.5496 147.303L67.9819 155.232H65.5449L60.9737 148.66C60.7797 148.358 60.6503 148.273 60.1534 148.273H58.2133V155.232H56.0996V139.892H58.2133V146.334H60.2385C60.6912 146.334 60.8205 146.249 61.0145 145.946L65.2385 139.892H67.6109L62.5462 147.303H62.5496Z" fill="white"/>
<path id="Vector_14" d="M69.7686 155.232V139.892H79.3193V141.786H71.8822V146.439H78.6964V148.313H71.8822V153.334H79.5371V155.228H69.772L69.7686 155.232Z" fill="white"/>
<path id="Vector_15" d="M80.5488 150.255V148.466H87.6217V150.255H80.5488Z" fill="white"/>
<path id="Vector_16" d="M89.4082 155.232V139.892H98.6152V141.786H91.5219V147.106H98.0774V148.96H91.5219V155.228H89.4082V155.232Z" fill="white"/>
<path id="Vector_17" d="M112.063 155.232H109.691L105.79 148.575H102.86V155.232H100.746V139.892H106.308C109.391 139.892 111.417 141.334 111.417 144.242C111.417 146.568 110.103 147.97 107.989 148.422L112.063 155.232ZM102.856 141.701V146.762H106.349C108.204 146.762 109.279 145.858 109.279 144.242C109.279 142.626 108.2 141.701 106.349 141.701H102.856Z" fill="white"/>
<path id="Vector_18" d="M114.153 155.232V139.892H123.704V141.786H116.267V146.439H123.081V148.313H116.267V153.334H123.922V155.228H114.157L114.153 155.232Z" fill="white"/>
<path id="Vector_19" d="M126.271 155.232V139.892H135.821V141.786H128.384V146.439H135.198V148.313H128.384V153.334H136.039V155.228H126.274L126.271 155.232Z" fill="white"/>
<path id="Vector_20" d="M11.3615 180.742L10.2417 177.748H3.3186L2.19879 180.742H0L5.90541 165.401H7.6515L13.6012 180.742H11.3581H11.3615ZM4.00955 175.895H9.52693L6.76654 168.568L4.00615 175.895H4.00955Z" fill="white"/>
<path id="Vector_21" d="M15.3066 180.742V165.401H17.4203V178.844H24.5579V180.738H15.31L15.3066 180.742Z" fill="white"/>
<path id="Vector_22" d="M27.9818 180.741V167.299H23.1758V165.404H34.9458V167.299H30.1159V180.741H27.9818Z" fill="white"/>
<path id="Vector_23" d="M36.8418 180.742V165.401H46.3926V167.296H38.9555V171.949H45.7697V173.823H38.9555V178.844H46.6104V180.738H36.8452L36.8418 180.742Z" fill="white"/>
<path id="Vector_24" d="M60.2724 180.742H57.9L53.9993 174.085H51.0688V180.742H48.9551V165.401H54.5167C57.6005 165.401 59.6256 166.844 59.6256 169.752C59.6256 172.078 58.3118 173.48 56.1981 173.932L60.2724 180.742ZM51.0654 167.211V172.272H54.5576C56.4126 172.272 57.4881 171.367 57.4881 169.752C57.4881 168.136 56.4092 167.211 54.5576 167.211H51.0654Z" fill="white"/>
<path id="Vector_25" d="M73.295 165.401H75.3202V180.742H73.3358L64.3875 168.786V180.742H62.3623V165.401H64.3467L73.295 177.357V165.401Z" fill="white"/>
<path id="Vector_26" d="M88.3835 180.742L87.2637 177.748H80.344L79.2242 180.742H77.0254L82.9308 165.401H84.6769L90.6265 180.742H88.3835ZM81.0315 175.895H86.5489L83.7885 168.568L81.0281 175.895H81.0315Z" fill="white"/>
<path id="Vector_27" d="M94.0101 180.741V167.299H89.2041V165.404H100.974V167.299H96.1442V180.741H94.0101Z" fill="white"/>
<path id="Vector_28" d="M102.955 180.742V165.401H105.069V180.742H102.955Z" fill="white"/>
<path id="Vector_29" d="M118.152 165.401H120.372L114.466 180.742H112.785L106.855 165.401H109.099L113.625 177.466L118.152 165.401Z" fill="white"/>
<path id="Vector_30" d="M122.077 180.742V165.401H131.628V167.296H124.191V171.949H131.005V173.823H124.191V178.844H131.846V180.738H122.081L122.077 180.742Z" fill="white"/>
<path id="Vector_31" d="M133.006 178.973L134.105 177.442C135.12 178.412 136.736 179.102 138.523 179.102C140.419 179.102 141.886 178.218 141.886 176.538C141.886 172.595 133.35 174.49 133.35 169.191C133.35 166.521 135.548 165.119 138.653 165.119C140.572 165.119 142.533 165.657 143.826 166.929L142.791 168.435C141.777 167.551 140.354 167.014 138.697 167.014C136.757 167.014 135.463 167.745 135.463 169.146C135.463 172.592 144 170.806 144 176.534C144 179.442 141.781 180.993 138.547 180.993C136.348 180.993 134.214 180.262 133.006 178.969V178.973Z" fill="white"/>
</g>
<defs>
<clipPath id="clip0_746_217">
<rect width="144" height="181" fill="white"/>
</clipPath>
</defs>
</svg>
