<svg width="190" height="176" viewBox="0 0 190 176" fill="none" xmlns="http://www.w3.org/2000/svg">
<path d="M94.8251 98.068C86.7327 98.068 78.6402 98.1684 70.5545 98.0479C57.714 97.8537 46.2368 88.6462 43.0603 76.2178C40.9717 68.0483 42.335 60.4814 46.5995 53.2628C54.2218 40.3589 61.7233 27.3814 69.3053 14.4574C73.2273 7.7611 79.0163 3.33481 86.4372 1.19868C99.009 -2.43074 112.911 2.29018 119.902 13.9351C128.142 27.6827 136.254 41.5107 144.098 55.4859C151.727 69.0795 146.08 87.0927 132.259 94.4721C127.86 96.8225 123.186 98.0814 118.189 98.0814C110.406 98.0814 102.615 98.0814 94.8318 98.0814V98.0613L94.8251 98.068ZM94.6975 94.164C115.933 94.2511 133.709 77.4767 133.676 55.6801C133.642 34.2184 116.409 17.377 94.9796 17.2699C73.3684 17.1628 56.0619 34.0576 55.8739 55.4056C55.6791 77.1218 73.3348 94.1841 94.6975 94.1707" fill="#34303D"/>
<path d="M36.6728 129.152C41.1992 129.152 45.7189 129.099 50.2453 129.165C54.2546 129.226 58.2505 129.547 62.0247 131.067C67.4577 133.25 69.8217 137.589 70.1306 143.147C70.3253 146.703 70.2313 150.279 70.1977 153.842C70.1776 155.636 69.0023 156.54 66.9742 156.5C65.2214 156.46 64.2677 155.529 64.2543 153.788C64.2409 150.996 64.2745 148.203 64.2275 145.411C64.2006 143.556 63.8044 141.755 62.9783 140.081C61.5277 137.148 58.9086 135.935 55.8597 135.427C51.4541 134.69 47.0083 135.011 42.576 134.978C36.9348 134.938 31.2868 134.991 25.6456 134.944C24.4771 134.938 24.0607 135.273 24.0674 136.478C24.0876 142.277 23.913 148.076 24.1682 153.875C24.3763 158.536 27.5193 161.79 32.1733 162.533C34.4902 162.908 36.7937 162.975 39.1241 162.975C47.7874 162.975 56.4439 162.995 65.1072 162.955C66.5041 162.949 67.5987 163.377 68.5658 164.355C70.7148 166.518 72.9042 168.64 75.0532 170.803C76.5239 172.283 76.5172 173.475 75.0935 174.902C73.6429 176.355 72.3468 176.375 70.8424 174.915C69.2441 173.355 67.6189 171.815 66.1011 170.181C65.1139 169.116 63.9924 168.707 62.5552 168.714C54.9262 168.748 47.3038 168.734 39.6748 168.727C35.7931 168.727 31.9584 168.46 28.1707 167.462C22.4086 165.942 18.5538 161.569 18.2046 155.643C17.8419 149.509 18.124 143.362 18.0636 137.221C18.0501 135.587 18.0568 133.953 18.0636 132.326C18.077 130.076 18.9903 129.132 21.2938 129.119C25.3434 129.092 29.393 129.119 33.4426 129.112H36.6728V129.159V129.152Z" fill="#34303D"/>
<path d="M164.897 151.819C161.365 151.819 157.832 151.853 154.3 151.806C151.587 151.773 148.887 151.592 146.342 150.487C144.032 149.482 142.635 147.708 142.084 145.324C141.453 142.585 141.399 139.799 141.755 137C142.151 133.873 144.011 132.012 146.845 130.96C151.204 129.34 155.771 129.226 160.331 129.159C164.81 129.092 169.289 129.112 173.769 129.199C177.053 129.266 180.29 129.721 183.184 131.463C184.762 132.413 186.025 133.672 186.831 135.353C187.429 136.599 187.026 137.603 186.112 138.474C185.206 139.331 184.205 139.759 182.963 139.09C182.459 138.815 182.009 138.48 181.653 138.058C179.773 135.782 177.248 135.018 174.44 135.032C166.952 135.065 159.458 134.596 151.976 135.413C148.994 135.735 147.618 137.308 147.49 140.302C147.349 143.556 148.833 145.21 151.902 145.632C153.622 145.866 155.327 145.947 157.053 145.947C163.427 145.96 169.806 145.933 176.18 145.987C178.994 146.014 181.754 146.449 184.286 147.788C186.871 149.161 188.174 151.391 188.678 154.217C189.154 156.882 189.188 159.487 188.268 162.072C187.066 165.453 184.413 167.087 181.136 167.904C176.999 168.935 172.768 168.768 168.551 168.768C164.159 168.768 159.76 168.808 155.368 168.714C151.734 168.634 148.168 168.152 145.052 166.009C143.857 165.185 142.923 164.141 142.232 162.882C141.466 161.482 141.788 160.13 143.091 159.132C144.32 158.194 145.603 158.127 146.664 159.366C149.277 162.406 152.614 163.089 156.402 163.009C162.043 162.888 167.691 162.989 173.332 162.955C175.783 162.942 178.235 162.835 180.585 161.998C181.713 161.596 182.425 160.813 182.801 159.674C183.292 158.201 183.319 156.688 182.963 155.228C182.419 153.005 180.713 152.114 177.697 151.98C173.44 151.793 169.168 151.933 164.904 151.933V151.833L164.897 151.819Z" fill="#34303D"/>
<path d="M106.275 129.119C109.72 129.052 113.514 129.085 117.282 129.507C119.975 129.802 122.614 130.418 125.059 131.677C129.404 133.913 131.499 137.683 131.788 142.344C132.103 147.473 132.439 152.65 131.445 157.746C130.565 162.252 127.772 165.266 123.487 166.92C119.861 168.319 116.046 168.634 112.218 168.714C108.001 168.808 103.776 168.815 99.5589 168.714C95.3012 168.614 91.0501 168.292 87.1147 166.411C83.28 164.583 80.9027 161.576 80.2848 157.377C79.4319 151.578 79.3513 145.732 80.3654 139.967C81.1444 135.554 84.0121 132.601 88.2027 130.994C92.541 129.333 97.101 129.206 101.668 129.125C103.091 129.099 104.508 129.125 106.275 129.125M105.737 163.009C109.868 162.835 113.917 163.27 117.94 162.5C121.822 161.757 124.689 159.641 125.502 155.643C126.321 151.605 126.241 147.493 125.717 143.469C124.998 137.971 121.916 136.016 117.806 135.514C109.888 134.549 101.909 134.596 93.9782 135.494C90.4054 135.902 87.2087 137.717 86.235 142.404C85.4022 146.395 85.5701 150.453 86.0066 154.451C86.4902 158.864 88.9884 161.67 94.2401 162.56C98.1084 163.216 101.977 162.788 105.744 163.002" fill="#34303D"/>
<path d="M1.01964 148.96C1.01964 142.953 1.01964 136.94 1.01964 130.934C1.01964 129.286 1.23454 129.079 2.87318 129.059C3.6925 129.052 4.51182 129.072 5.32442 129.059C6.51982 129.025 7.03022 129.574 7.01678 130.773C6.98321 134.804 7.00335 138.842 7.00335 142.873C7.00335 150.768 7.00335 158.67 7.00335 166.565C7.00335 168.574 6.84889 168.728 4.90133 168.728C0.341353 168.728 1.03979 169.049 1.01964 164.924C0.986063 159.601 1.01293 154.277 1.01293 148.96" fill="#34303D"/>
</svg>
